<?xml version="1.0" encoding="utf-8"?>
<!-- Generator: Adobe Illustrator 19.0.0, SVG Export Plug-In . SVG Version: 6.00 Build 0)  -->
<svg version="1.1" id="Layer_1" xmlns="http://www.w3.org/2000/svg" xmlns:xlink="http://www.w3.org/1999/xlink" x="0px" y="0px"
	 viewBox="0 0 83 68.9" style="enable-background:new 0 0 83 68.9;" xml:space="preserve">
<style type="text/css">
	.st0{fill:#404041;}
</style>
<path id="XMLID_154_" class="st0" d="M78.3,51V27.6h-4.5L72,0h-9.2l-1.3,20.8h-2.5L58,6.5h-9.2l-0.9,14.3h-8v5.8H26.1l-10.2-7
	L4.4,27.6V51H0v17.9h83V51H78.3z M35,51h-7.5V34.4H35V51z M68.2,51.2H45.1v-6.5h23.1V51.2z M68.2,39.1H45.1v-6.5h23.1V39.1z
	 M68.2,39.1"/>
<path id="XMLID_196_" class="st0" d="M78.3,51V27.6h-4.5L72,0h-9.2l-1.3,20.8h-2.5L58,6.5h-9.2l-0.9,14.3h-8v5.8H26.1l-10.2-7
	L4.4,27.6V51H0v17.9h83V51H78.3z M35,51h-7.5V34.4H35V51z M68.2,51.2H45.1v-6.5h23.1V51.2z M68.2,39.1H45.1v-6.5h23.1V39.1z
	 M68.2,39.1"/>
<path id="XMLID_294_" class="st0" d="M78.3,51V27.6h-4.5L72,0h-9.2l-1.3,20.8h-2.5L58,6.5h-9.2l-0.9,14.3h-8v5.8H26.1l-10.2-7
	L4.4,27.6V51H0v17.9h83V51H78.3z M35,51h-7.5V34.4H35V51z M68.2,51.2H45.1v-6.5h23.1V51.2z M68.2,39.1H45.1v-6.5h23.1V39.1z
	 M68.2,39.1"/>
<path id="XMLID_392_" class="st0" d="M78.3,51V27.6h-4.5L72,0h-9.2l-1.3,20.8h-2.5L58,6.5h-9.2l-0.9,14.3h-8v5.8H26.1l-10.2-7
	L4.4,27.6V51H0v17.9h83V51H78.3z M35,51h-7.5V34.4H35V51z M68.2,51.2H45.1v-6.5h23.1V51.2z M68.2,39.1H45.1v-6.5h23.1V39.1z
	 M68.2,39.1"/>
</svg>
