<?xml version="1.0" encoding="utf-8"?>
<!-- Generator: Adobe Illustrator 19.0.0, SVG Export Plug-In . SVG Version: 6.00 Build 0)  -->
<svg version="1.1" id="Layer_1" xmlns="http://www.w3.org/2000/svg" xmlns:xlink="http://www.w3.org/1999/xlink" x="0px" y="0px"
	 viewBox="0 0 82 67.6" style="enable-background:new 0 0 82 67.6;" xml:space="preserve">
<style type="text/css">
	.st0{fill:#404041;}
</style>
<path id="XMLID_21_" class="st0" d="M74.4,22.3c-2.6,0-4.6,2.1-4.6,4.6c0,2.6,2.1,4.6,4.6,4.6c2.6,0,4.6-2.1,4.6-4.6
	C79,24.3,77,22.3,74.4,22.3L74.4,22.3z M7.6,22.3c-2.6,0-4.6,2.1-4.6,4.6c0,2.6,2.1,4.6,4.6,4.6c2.6,0,4.6-2.1,4.6-4.6
	C12.3,24.3,10.2,22.3,7.6,22.3L7.6,22.3z M60.6,13.8c-3.8,0-6.9,3.1-6.9,6.9c0,3.8,3.1,6.9,6.9,6.9c3.8,0,6.9-3.1,6.9-6.9
	C67.5,16.9,64.4,13.8,60.6,13.8L60.6,13.8z M82,55.8h-7.9V41.3c0-2.5-0.7-4.8-1.9-6.8c0.7-0.2,1.4-0.3,2.2-0.3
	c4.2,0,7.6,3.4,7.6,7.6V55.8z M21.4,13.8c-3.8,0-6.9,3.1-6.9,6.9c0,3.8,3.1,6.9,6.9,6.9c3.8,0,6.9-3.1,6.9-6.9
	C28.4,16.9,25.2,13.8,21.4,13.8L21.4,13.8z M7.6,34.2c0.8,0,1.5,0.1,2.1,0.3c-1.2,2-1.9,4.3-1.9,6.8v14.5H0v-14
	C0,37.6,3.4,34.2,7.6,34.2L7.6,34.2z M41,0c-5.6,0-10.2,4.6-10.2,10.2c0,5.6,4.6,10.2,10.2,10.2c5.6,0,10.2-4.6,10.2-10.2
	C51.2,4.6,46.6,0,41,0L41,0z M71.6,61.2H59.6V39.2c0-3-0.8-5.9-2.1-8.4c1-0.3,2-0.5,3.1-0.5c6.1,0,11,4.9,11,11V61.2z M22.5,39.2
	v22.1H10.4V41.3c0-6.1,5-11,11.1-11c1.1,0,2.1,0.2,3.1,0.5C23.3,33.3,22.5,36.2,22.5,39.2L22.5,39.2z M25,67.6h32V39.2
	c0-8.8-7.2-16-16-16c-8.8,0-16,7.2-16,16V67.6z M25,67.6"/>
</svg>
