<?xml version="1.0" encoding="utf-8"?>
<!-- Generator: Adobe Illustrator 19.0.0, SVG Export Plug-In . SVG Version: 6.00 Build 0)  -->
<svg version="1.1" id="Layer_1" xmlns="http://www.w3.org/2000/svg" xmlns:xlink="http://www.w3.org/1999/xlink" x="0px" y="0px"
	 viewBox="0 0 125.5 82" style="enable-background:new 0 0 125.5 82;" xml:space="preserve">
<style type="text/css">
	.st0{fill:#404041;}
</style>
<g id="XMLID_173_">
	<path id="XMLID_186_" class="st0" d="M79.3,34.1v-3.6c0-7.4-4.9-13.7-11.6-15.8v-1.4c0-2.7-1.6-5-3.7-5.6V4c0.6-0.4,1-1.1,1-1.8
		C64.9,1,64,0,62.8,0c-1.2,0-2.2,1-2.2,2.2c0,0.8,0.4,1.4,1,1.8v3.7c-2.1,0.6-3.7,2.9-3.7,5.6v1.4c-6.7,2.1-11.6,8.4-11.6,15.8v3.6
		c3.4-2,8.6-3.8,16.5-3.8C70.7,30.3,75.9,32.1,79.3,34.1L79.3,34.1z M60.7,13.4c0-1.6,0.9-2.9,2.1-2.9c1.1,0,2.1,1.3,2.1,2.9v0.7
		C64.2,14,63.5,14,62.8,14c-0.7,0-1.4,0-2.1,0.1V13.4z M60.7,13.4"/>
	<path id="XMLID_174_" class="st0" d="M87,45.6v5l-2.1-1.1l-3.3-1.7v-7.4c-0.9-1.4-5.5-6.8-18.8-6.8c-13.3,0-17.9,5.4-18.8,6.8V48
		l-3.3,1.6l-2.1,1v-5H0v6.8h3.3V82h119V52.4h3.3v-6.8L87,45.6L87,45.6z M16.7,74h-4.3V53.2h4.3V74z M28.7,74h-4.3V53.2h4.3V74z
		 M63.7,42.1l18.1,9.1H44.2L63.7,42.1z M48.8,77.7h-5.6V56.7h5.6V77.7z M60.4,77.7h-7V56.7h7V77.7z M72.1,77.7h-7V56.7h7V77.7z
		 M82.4,77.7h-5.6V56.7h5.6V77.7z M101.1,74h-4.3V53.2h4.3V74z M113.1,74h-4.3V53.2h4.3V74z M113.1,74"/>
</g>
<g id="XMLID_215_">
	<path id="XMLID_228_" class="st0" d="M79.3,34.1v-3.6c0-7.4-4.9-13.7-11.6-15.8v-1.4c0-2.7-1.6-5-3.7-5.6V4c0.6-0.4,1-1.1,1-1.8
		C64.9,1,64,0,62.8,0c-1.2,0-2.2,1-2.2,2.2c0,0.8,0.4,1.4,1,1.8v3.7c-2.1,0.6-3.7,2.9-3.7,5.6v1.4c-6.7,2.1-11.6,8.4-11.6,15.8v3.6
		c3.4-2,8.6-3.8,16.5-3.8C70.7,30.3,75.9,32.1,79.3,34.1L79.3,34.1z M60.7,13.4c0-1.6,0.9-2.9,2.1-2.9c1.1,0,2.1,1.3,2.1,2.9v0.7
		C64.2,14,63.5,14,62.8,14c-0.7,0-1.4,0-2.1,0.1V13.4z M60.7,13.4"/>
	<path id="XMLID_216_" class="st0" d="M87,45.6v5l-2.1-1.1l-3.3-1.7v-7.4c-0.9-1.4-5.5-6.8-18.8-6.8c-13.3,0-17.9,5.4-18.8,6.8V48
		l-3.3,1.6l-2.1,1v-5H0v6.8h3.3V82h119V52.4h3.3v-6.8L87,45.6L87,45.6z M16.7,74h-4.3V53.2h4.3V74z M28.7,74h-4.3V53.2h4.3V74z
		 M63.7,42.1l18.1,9.1H44.2L63.7,42.1z M48.8,77.7h-5.6V56.7h5.6V77.7z M60.4,77.7h-7V56.7h7V77.7z M72.1,77.7h-7V56.7h7V77.7z
		 M82.4,77.7h-5.6V56.7h5.6V77.7z M101.1,74h-4.3V53.2h4.3V74z M113.1,74h-4.3V53.2h4.3V74z M113.1,74"/>
</g>
<g id="XMLID_313_">
	<path id="XMLID_326_" class="st0" d="M79.3,34.1v-3.6c0-7.4-4.9-13.7-11.6-15.8v-1.4c0-2.7-1.6-5-3.7-5.6V4c0.6-0.4,1-1.1,1-1.8
		C64.9,1,64,0,62.8,0c-1.2,0-2.2,1-2.2,2.2c0,0.8,0.4,1.4,1,1.8v3.7c-2.1,0.6-3.7,2.9-3.7,5.6v1.4c-6.7,2.1-11.6,8.4-11.6,15.8v3.6
		c3.4-2,8.6-3.8,16.5-3.8C70.7,30.3,75.9,32.1,79.3,34.1L79.3,34.1z M60.7,13.4c0-1.6,0.9-2.9,2.1-2.9c1.1,0,2.1,1.3,2.1,2.9v0.7
		C64.2,14,63.5,14,62.8,14c-0.7,0-1.4,0-2.1,0.1V13.4z M60.7,13.4"/>
	<path id="XMLID_314_" class="st0" d="M87,45.6v5l-2.1-1.1l-3.3-1.7v-7.4c-0.9-1.4-5.5-6.8-18.8-6.8c-13.3,0-17.9,5.4-18.8,6.8V48
		l-3.3,1.6l-2.1,1v-5H0v6.8h3.3V82h119V52.4h3.3v-6.8L87,45.6L87,45.6z M16.7,74h-4.3V53.2h4.3V74z M28.7,74h-4.3V53.2h4.3V74z
		 M63.7,42.1l18.1,9.1H44.2L63.7,42.1z M48.8,77.7h-5.6V56.7h5.6V77.7z M60.4,77.7h-7V56.7h7V77.7z M72.1,77.7h-7V56.7h7V77.7z
		 M82.4,77.7h-5.6V56.7h5.6V77.7z M101.1,74h-4.3V53.2h4.3V74z M113.1,74h-4.3V53.2h4.3V74z M113.1,74"/>
</g>
<g id="XMLID_411_">
	<path id="XMLID_424_" class="st0" d="M79.3,34.1v-3.6c0-7.4-4.9-13.7-11.6-15.8v-1.4c0-2.7-1.6-5-3.7-5.6V4c0.6-0.4,1-1.1,1-1.8
		C64.9,1,64,0,62.8,0c-1.2,0-2.2,1-2.2,2.2c0,0.8,0.4,1.4,1,1.8v3.7c-2.1,0.6-3.7,2.9-3.7,5.6v1.4c-6.7,2.1-11.6,8.4-11.6,15.8v3.6
		c3.4-2,8.6-3.8,16.5-3.8C70.7,30.3,75.9,32.1,79.3,34.1L79.3,34.1z M60.7,13.4c0-1.6,0.9-2.9,2.1-2.9c1.1,0,2.1,1.3,2.1,2.9v0.7
		C64.2,14,63.5,14,62.8,14c-0.7,0-1.4,0-2.1,0.1V13.4z M60.7,13.4"/>
	<path id="XMLID_412_" class="st0" d="M87,45.6v5l-2.1-1.1l-3.3-1.7v-7.4c-0.9-1.4-5.5-6.8-18.8-6.8c-13.3,0-17.9,5.4-18.8,6.8V48
		l-3.3,1.6l-2.1,1v-5H0v6.8h3.3V82h119V52.4h3.3v-6.8L87,45.6L87,45.6z M16.7,74h-4.3V53.2h4.3V74z M28.7,74h-4.3V53.2h4.3V74z
		 M63.7,42.1l18.1,9.1H44.2L63.7,42.1z M48.8,77.7h-5.6V56.7h5.6V77.7z M60.4,77.7h-7V56.7h7V77.7z M72.1,77.7h-7V56.7h7V77.7z
		 M82.4,77.7h-5.6V56.7h5.6V77.7z M101.1,74h-4.3V53.2h4.3V74z M113.1,74h-4.3V53.2h4.3V74z M113.1,74"/>
</g>
</svg>
