<?xml version="1.0" encoding="utf-8"?>
<!-- Generator: Adobe Illustrator 19.0.0, SVG Export Plug-In . SVG Version: 6.00 Build 0)  -->
<svg version="1.1" id="Layer_1" xmlns="http://www.w3.org/2000/svg" xmlns:xlink="http://www.w3.org/1999/xlink" x="0px" y="0px"
	 viewBox="0 0 53.1 69.8" style="enable-background:new 0 0 53.1 69.8;" xml:space="preserve">
<style type="text/css">
	.st0{fill:#404041;}
</style>
<g id="XMLID_147_">
	<path id="XMLID_151_" class="st0" d="M26.5,34.1c7.8,0,14-7.6,14-17.1c0-9.4-2.1-17.1-14-17.1c-12,0-14,7.6-14,17.1
		C12.5,26.5,18.8,34.1,26.5,34.1L26.5,34.1z M26.5,34.1"/>
	<path id="XMLID_148_" class="st0" d="M53,59.5c-0.3-16.4-2.4-21.1-18.8-24.1c0,0-2.3,2.9-7.7,2.9c-5.4,0-7.7-2.9-7.7-2.9
		C2.6,38.4,0.3,43,0,58.9c0,1.3,0,1.4,0,1.2c0,0.3,0,0.8,0,1.7c0,0,3.9,7.9,26.5,7.9c22.6,0,26.5-7.9,26.5-7.9c0-0.6,0-1,0-1.3
		C53.1,60.7,53,60.5,53,59.5L53,59.5z M53,59.5"/>
</g>
<g id="XMLID_134_">
	<path id="XMLID_193_" class="st0" d="M26.5,34.1c7.8,0,14-7.6,14-17.1c0-9.4-2.1-17.1-14-17.1c-12,0-14,7.6-14,17.1
		C12.5,26.5,18.8,34.1,26.5,34.1L26.5,34.1z M26.5,34.1"/>
	<path id="XMLID_190_" class="st0" d="M53,59.5c-0.3-16.4-2.4-21.1-18.8-24.1c0,0-2.3,2.9-7.7,2.9c-5.4,0-7.7-2.9-7.7-2.9
		C2.6,38.4,0.3,43,0,58.9c0,1.3,0,1.4,0,1.2c0,0.3,0,0.8,0,1.7c0,0,3.9,7.9,26.5,7.9c22.6,0,26.5-7.9,26.5-7.9c0-0.6,0-1,0-1.3
		C53.1,60.7,53,60.5,53,59.5L53,59.5z M53,59.5"/>
</g>
<g id="XMLID_287_">
	<path id="XMLID_291_" class="st0" d="M26.5,34.1c7.8,0,14-7.6,14-17.1c0-9.4-2.1-17.1-14-17.1c-12,0-14,7.6-14,17.1
		C12.5,26.5,18.8,34.1,26.5,34.1L26.5,34.1z M26.5,34.1"/>
	<path id="XMLID_288_" class="st0" d="M53,59.5c-0.3-16.4-2.4-21.1-18.8-24.1c0,0-2.3,2.9-7.7,2.9c-5.4,0-7.7-2.9-7.7-2.9
		C2.6,38.4,0.3,43,0,58.9c0,1.3,0,1.4,0,1.2c0,0.3,0,0.8,0,1.7c0,0,3.9,7.9,26.5,7.9c22.6,0,26.5-7.9,26.5-7.9c0-0.6,0-1,0-1.3
		C53.1,60.7,53,60.5,53,59.5L53,59.5z M53,59.5"/>
</g>
<g id="XMLID_385_">
	<path id="XMLID_389_" class="st0" d="M26.5,34.1c7.8,0,14-7.6,14-17.1c0-9.4-2.1-17.1-14-17.1c-12,0-14,7.6-14,17.1
		C12.5,26.5,18.8,34.1,26.5,34.1L26.5,34.1z M26.5,34.1"/>
	<path id="XMLID_386_" class="st0" d="M53,59.5c-0.3-16.4-2.4-21.1-18.8-24.1c0,0-2.3,2.9-7.7,2.9c-5.4,0-7.7-2.9-7.7-2.9
		C2.6,38.4,0.3,43,0,58.9c0,1.3,0,1.4,0,1.2c0,0.3,0,0.8,0,1.7c0,0,3.9,7.9,26.5,7.9c22.6,0,26.5-7.9,26.5-7.9c0-0.6,0-1,0-1.3
		C53.1,60.7,53,60.5,53,59.5L53,59.5z M53,59.5"/>
</g>
</svg>
