<?xml version="1.0" encoding="utf-8"?>
<!-- Generator: Adobe Illustrator 19.0.0, SVG Export Plug-In . SVG Version: 6.00 Build 0)  -->
<svg version="1.1" id="Layer_1" xmlns="http://www.w3.org/2000/svg" xmlns:xlink="http://www.w3.org/1999/xlink" x="0px" y="0px"
	 viewBox="0 0 78.4 82.9" style="enable-background:new 0 0 78.4 82.9;" xml:space="preserve">
<style type="text/css">
	.st0{fill:#404041;}
</style>
<path id="XMLID_160_" class="st0" d="M75.8,74.6V37.1c0-2-1.6-3.5-3.5-3.5H55.5V23.4c0-1-0.5-1.8-1.4-2.3l-13.6-7.6
	c-0.1,0-0.2-0.1-0.2-0.1V9h7.3c0.6,0,1.1-0.5,1.1-1.1V2.6c0-0.6-0.5-1.1-1.1-1.1h-7.3V1.1c0-0.6-0.5-1.1-1.1-1.1
	c-0.6,0-1.1,0.5-1.1,1.1v12.3c-0.1,0-0.2,0.1-0.2,0.1l-13.6,7.6c-0.8,0.5-1.4,1.4-1.4,2.3v10.2H6.1c-2,0-3.5,1.6-3.5,3.5v37.5
	C1,75.3,0,76.8,0,78.5c0,2.4,1.9,4.3,4.3,4.3h69.7c2.4,0,4.3-1.9,4.3-4.3C78.4,76.8,77.3,75.3,75.8,74.6L75.8,74.6z M62.2,45.9
	c0-1.1,0.9-2.1,2.1-2.1h3.9c1.1,0,2.1,0.9,2.1,2.1v3.9c0,1.1-0.9,2.1-2.1,2.1h-3.9c-1.1,0-2.1-0.9-2.1-2.1V45.9z M62.2,58.3
	c0-1.1,0.9-2.1,2.1-2.1h3.9c1.1,0,2.1,0.9,2.1,2.1v3.9c0,1.1-0.9,2.1-2.1,2.1h-3.9c-1.1,0-2.1-0.9-2.1-2.1V58.3z M49.8,45.9
	c0-1.1,0.9-2.1,2.1-2.1h3.9c1.1,0,2.1,0.9,2.1,2.1v3.9c0,1.1-0.9,2.1-2.1,2.1h-3.9c-1.1,0-2.1-0.9-2.1-2.1V45.9z M49.8,58.3
	c0-1.1,0.9-2.1,2.1-2.1h3.9c1.1,0,2.1,0.9,2.1,2.1v3.9c0,1.1-0.9,2.1-2.1,2.1h-3.9c-1.1,0-2.1-0.9-2.1-2.1V58.3z M39.2,23.4
	c3.2,0,5.8,2.6,5.8,5.8c0,3.2-2.6,5.8-5.8,5.8c-3.2,0-5.8-2.6-5.8-5.8C33.4,26,36,23.4,39.2,23.4L39.2,23.4z M33.4,56.9
	c0-1.1,0.9-2.1,2.1-2.1H43c1.1,0,2.1,0.9,2.1,2.1v16.2c0,0.4-0.1,0.7-0.3,1H33.6c-0.2-0.3-0.3-0.6-0.3-1L33.4,56.9L33.4,56.9z
	 M20.6,45.9c0-1.1,0.9-2.1,2.1-2.1h3.9c1.1,0,2.1,0.9,2.1,2.1v3.9c0,1.1-0.9,2.1-2.1,2.1h-3.9c-1.1,0-2.1-0.9-2.1-2.1V45.9z
	 M20.6,58.3c0-1.1,0.9-2.1,2.1-2.1h3.9c1.1,0,2.1,0.9,2.1,2.1v3.9c0,1.1-0.9,2.1-2.1,2.1h-3.9c-1.1,0-2.1-0.9-2.1-2.1V58.3z
	 M8.3,45.9c0-1.1,0.9-2.1,2.1-2.1h3.9c1.1,0,2.1,0.9,2.1,2.1v3.9c0,1.1-0.9,2.1-2.1,2.1h-3.9c-1.1,0-2.1-0.9-2.1-2.1V45.9z
	 M8.3,58.3c0-1.1,0.9-2.1,2.1-2.1h3.9c1.1,0,2.1,0.9,2.1,2.1v3.9c0,1.1-0.9,2.1-2.1,2.1h-3.9c-1.1,0-2.1-0.9-2.1-2.1V58.3z
	 M8.3,58.3"/>
<path id="XMLID_202_" class="st0" d="M75.8,74.6V37.1c0-2-1.6-3.5-3.5-3.5H55.5V23.4c0-1-0.5-1.8-1.4-2.3l-13.6-7.6
	c-0.1,0-0.2-0.1-0.2-0.1V9h7.3c0.6,0,1.1-0.5,1.1-1.1V2.6c0-0.6-0.5-1.1-1.1-1.1h-7.3V1.1c0-0.6-0.5-1.1-1.1-1.1
	c-0.6,0-1.1,0.5-1.1,1.1v12.3c-0.1,0-0.2,0.1-0.2,0.1l-13.6,7.6c-0.8,0.5-1.4,1.4-1.4,2.3v10.2H6.1c-2,0-3.5,1.6-3.5,3.5v37.5
	C1,75.3,0,76.8,0,78.5c0,2.4,1.9,4.3,4.3,4.3h69.7c2.4,0,4.3-1.9,4.3-4.3C78.4,76.8,77.3,75.3,75.8,74.6L75.8,74.6z M62.2,45.9
	c0-1.1,0.9-2.1,2.1-2.1h3.9c1.1,0,2.1,0.9,2.1,2.1v3.9c0,1.1-0.9,2.1-2.1,2.1h-3.9c-1.1,0-2.1-0.9-2.1-2.1V45.9z M62.2,58.3
	c0-1.1,0.9-2.1,2.1-2.1h3.9c1.1,0,2.1,0.9,2.1,2.1v3.9c0,1.1-0.9,2.1-2.1,2.1h-3.9c-1.1,0-2.1-0.9-2.1-2.1V58.3z M49.8,45.9
	c0-1.1,0.9-2.1,2.1-2.1h3.9c1.1,0,2.1,0.9,2.1,2.1v3.9c0,1.1-0.9,2.1-2.1,2.1h-3.9c-1.1,0-2.1-0.9-2.1-2.1V45.9z M49.8,58.3
	c0-1.1,0.9-2.1,2.1-2.1h3.9c1.1,0,2.1,0.9,2.1,2.1v3.9c0,1.1-0.9,2.1-2.1,2.1h-3.9c-1.1,0-2.1-0.9-2.1-2.1V58.3z M39.2,23.4
	c3.2,0,5.8,2.6,5.8,5.8c0,3.2-2.6,5.8-5.8,5.8c-3.2,0-5.8-2.6-5.8-5.8C33.4,26,36,23.4,39.2,23.4L39.2,23.4z M33.4,56.9
	c0-1.1,0.9-2.1,2.1-2.1H43c1.1,0,2.1,0.9,2.1,2.1v16.2c0,0.4-0.1,0.7-0.3,1H33.6c-0.2-0.3-0.3-0.6-0.3-1L33.4,56.9L33.4,56.9z
	 M20.6,45.9c0-1.1,0.9-2.1,2.1-2.1h3.9c1.1,0,2.1,0.9,2.1,2.1v3.9c0,1.1-0.9,2.1-2.1,2.1h-3.9c-1.1,0-2.1-0.9-2.1-2.1V45.9z
	 M20.6,58.3c0-1.1,0.9-2.1,2.1-2.1h3.9c1.1,0,2.1,0.9,2.1,2.1v3.9c0,1.1-0.9,2.1-2.1,2.1h-3.9c-1.1,0-2.1-0.9-2.1-2.1V58.3z
	 M8.3,45.9c0-1.1,0.9-2.1,2.1-2.1h3.9c1.1,0,2.1,0.9,2.1,2.1v3.9c0,1.1-0.9,2.1-2.1,2.1h-3.9c-1.1,0-2.1-0.9-2.1-2.1V45.9z
	 M8.3,58.3c0-1.1,0.9-2.1,2.1-2.1h3.9c1.1,0,2.1,0.9,2.1,2.1v3.9c0,1.1-0.9,2.1-2.1,2.1h-3.9c-1.1,0-2.1-0.9-2.1-2.1V58.3z
	 M8.3,58.3"/>
<path id="XMLID_300_" class="st0" d="M75.8,74.6V37.1c0-2-1.6-3.5-3.5-3.5H55.5V23.4c0-1-0.5-1.8-1.4-2.3l-13.6-7.6
	c-0.1,0-0.2-0.1-0.2-0.1V9h7.3c0.6,0,1.1-0.5,1.1-1.1V2.6c0-0.6-0.5-1.1-1.1-1.1h-7.3V1.1c0-0.6-0.5-1.1-1.1-1.1
	c-0.6,0-1.1,0.5-1.1,1.1v12.3c-0.1,0-0.2,0.1-0.2,0.1l-13.6,7.6c-0.8,0.5-1.4,1.4-1.4,2.3v10.2H6.1c-2,0-3.5,1.6-3.5,3.5v37.5
	C1,75.3,0,76.8,0,78.5c0,2.4,1.9,4.3,4.3,4.3h69.7c2.4,0,4.3-1.9,4.3-4.3C78.4,76.8,77.3,75.3,75.8,74.6L75.8,74.6z M62.2,45.9
	c0-1.1,0.9-2.1,2.1-2.1h3.9c1.1,0,2.1,0.9,2.1,2.1v3.9c0,1.1-0.9,2.1-2.1,2.1h-3.9c-1.1,0-2.1-0.9-2.1-2.1V45.9z M62.2,58.3
	c0-1.1,0.9-2.1,2.1-2.1h3.9c1.1,0,2.1,0.9,2.1,2.1v3.9c0,1.1-0.9,2.1-2.1,2.1h-3.9c-1.1,0-2.1-0.9-2.1-2.1V58.3z M49.8,45.9
	c0-1.1,0.9-2.1,2.1-2.1h3.9c1.1,0,2.1,0.9,2.1,2.1v3.9c0,1.1-0.9,2.1-2.1,2.1h-3.9c-1.1,0-2.1-0.9-2.1-2.1V45.9z M49.8,58.3
	c0-1.1,0.9-2.1,2.1-2.1h3.9c1.1,0,2.1,0.9,2.1,2.1v3.9c0,1.1-0.9,2.1-2.1,2.1h-3.9c-1.1,0-2.1-0.9-2.1-2.1V58.3z M39.2,23.4
	c3.2,0,5.8,2.6,5.8,5.8c0,3.2-2.6,5.8-5.8,5.8c-3.2,0-5.8-2.6-5.8-5.8C33.4,26,36,23.4,39.2,23.4L39.2,23.4z M33.4,56.9
	c0-1.1,0.9-2.1,2.1-2.1H43c1.1,0,2.1,0.9,2.1,2.1v16.2c0,0.4-0.1,0.7-0.3,1H33.6c-0.2-0.3-0.3-0.6-0.3-1L33.4,56.9L33.4,56.9z
	 M20.6,45.9c0-1.1,0.9-2.1,2.1-2.1h3.9c1.1,0,2.1,0.9,2.1,2.1v3.9c0,1.1-0.9,2.1-2.1,2.1h-3.9c-1.1,0-2.1-0.9-2.1-2.1V45.9z
	 M20.6,58.3c0-1.1,0.9-2.1,2.1-2.1h3.9c1.1,0,2.1,0.9,2.1,2.1v3.9c0,1.1-0.9,2.1-2.1,2.1h-3.9c-1.1,0-2.1-0.9-2.1-2.1V58.3z
	 M8.3,45.9c0-1.1,0.9-2.1,2.1-2.1h3.9c1.1,0,2.1,0.9,2.1,2.1v3.9c0,1.1-0.9,2.1-2.1,2.1h-3.9c-1.1,0-2.1-0.9-2.1-2.1V45.9z
	 M8.3,58.3c0-1.1,0.9-2.1,2.1-2.1h3.9c1.1,0,2.1,0.9,2.1,2.1v3.9c0,1.1-0.9,2.1-2.1,2.1h-3.9c-1.1,0-2.1-0.9-2.1-2.1V58.3z
	 M8.3,58.3"/>
<path id="XMLID_398_" class="st0" d="M75.8,74.6V37.1c0-2-1.6-3.5-3.5-3.5H55.5V23.4c0-1-0.5-1.8-1.4-2.3l-13.6-7.6
	c-0.1,0-0.2-0.1-0.2-0.1V9h7.3c0.6,0,1.1-0.5,1.1-1.1V2.6c0-0.6-0.5-1.1-1.1-1.1h-7.3V1.1c0-0.6-0.5-1.1-1.1-1.1
	c-0.6,0-1.1,0.5-1.1,1.1v12.3c-0.1,0-0.2,0.1-0.2,0.1l-13.6,7.6c-0.8,0.5-1.4,1.4-1.4,2.3v10.2H6.1c-2,0-3.5,1.6-3.5,3.5v37.5
	C1,75.3,0,76.8,0,78.5c0,2.4,1.9,4.3,4.3,4.3h69.7c2.4,0,4.3-1.9,4.3-4.3C78.4,76.8,77.3,75.3,75.8,74.6L75.8,74.6z M62.2,45.9
	c0-1.1,0.9-2.1,2.1-2.1h3.9c1.1,0,2.1,0.9,2.1,2.1v3.9c0,1.1-0.9,2.1-2.1,2.1h-3.9c-1.1,0-2.1-0.9-2.1-2.1V45.9z M62.2,58.3
	c0-1.1,0.9-2.1,2.1-2.1h3.9c1.1,0,2.1,0.9,2.1,2.1v3.9c0,1.1-0.9,2.1-2.1,2.1h-3.9c-1.1,0-2.1-0.9-2.1-2.1V58.3z M49.8,45.9
	c0-1.1,0.9-2.1,2.1-2.1h3.9c1.1,0,2.1,0.9,2.1,2.1v3.9c0,1.1-0.9,2.1-2.1,2.1h-3.9c-1.1,0-2.1-0.9-2.1-2.1V45.9z M49.8,58.3
	c0-1.1,0.9-2.1,2.1-2.1h3.9c1.1,0,2.1,0.9,2.1,2.1v3.9c0,1.1-0.9,2.1-2.1,2.1h-3.9c-1.1,0-2.1-0.9-2.1-2.1V58.3z M39.2,23.4
	c3.2,0,5.8,2.6,5.8,5.8c0,3.2-2.6,5.8-5.8,5.8c-3.2,0-5.8-2.6-5.8-5.8C33.4,26,36,23.4,39.2,23.4L39.2,23.4z M33.4,56.9
	c0-1.1,0.9-2.1,2.1-2.1H43c1.1,0,2.1,0.9,2.1,2.1v16.2c0,0.4-0.1,0.7-0.3,1H33.6c-0.2-0.3-0.3-0.6-0.3-1L33.4,56.9L33.4,56.9z
	 M20.6,45.9c0-1.1,0.9-2.1,2.1-2.1h3.9c1.1,0,2.1,0.9,2.1,2.1v3.9c0,1.1-0.9,2.1-2.1,2.1h-3.9c-1.1,0-2.1-0.9-2.1-2.1V45.9z
	 M20.6,58.3c0-1.1,0.9-2.1,2.1-2.1h3.9c1.1,0,2.1,0.9,2.1,2.1v3.9c0,1.1-0.9,2.1-2.1,2.1h-3.9c-1.1,0-2.1-0.9-2.1-2.1V58.3z
	 M8.3,45.9c0-1.1,0.9-2.1,2.1-2.1h3.9c1.1,0,2.1,0.9,2.1,2.1v3.9c0,1.1-0.9,2.1-2.1,2.1h-3.9c-1.1,0-2.1-0.9-2.1-2.1V45.9z
	 M8.3,58.3c0-1.1,0.9-2.1,2.1-2.1h3.9c1.1,0,2.1,0.9,2.1,2.1v3.9c0,1.1-0.9,2.1-2.1,2.1h-3.9c-1.1,0-2.1-0.9-2.1-2.1V58.3z
	 M8.3,58.3"/>
</svg>
